<svg width="32" height="32" viewBox="0 0 32 32" fill="none" xmlns="http://www.w3.org/2000/svg">
<g clip-path="url(#clip0_579_35808)">
<g clip-path="url(#clip1_579_35808)">
<g clip-path="url(#clip2_579_35808)">
<g clip-path="url(#clip3_579_35808)">
<mask id="mask0_579_35808" style="mask-type:luminance" maskUnits="userSpaceOnUse" x="0" y="0" width="32" height="32">
<path d="M0.164551 0.174316H31.384V31.3938H0.164551V0.174316Z" fill="white"/>
</mask>
<g mask="url(#mask0_579_35808)">
<path d="M13.7267 2.11711C13.8724 4.13612 14.3289 7.00163 15.7742 7.00163C17.2195 7.00163 17.6758 4.12985 17.8217 2.11711C17.8977 1.06371 17.061 0.17334 15.996 0.17334H15.5586C14.4937 0.17334 13.6569 1.06371 13.7267 2.11711Z" fill="#342E35"/>
<path d="M13.7265 2.11655C13.8724 4.13558 14.335 7.00107 15.774 7.00107C17.2129 7.00107 17.6757 4.1293 17.8215 2.11029C17.8976 1.06315 17.0545 0.166504 15.9958 0.166504H15.5585C14.4872 0.172781 13.6505 1.06315 13.7265 2.11655Z" fill="white"/>
<path d="M18.6046 2.23728C18.0404 4.18106 17.4825 7.03401 18.8391 7.5231C20.1956 8.01218 21.6156 5.46646 22.4523 3.623C22.8834 2.66366 22.408 1.54128 21.4064 1.18388L20.9943 1.0334C19.9928 0.67599 18.8961 1.22777 18.6046 2.23728Z" fill="white"/>
<path d="M23.107 3.99062C21.9089 5.62715 20.3939 8.11644 21.5032 9.03819C22.6125 9.95979 24.8248 8.04744 26.2448 6.59277C26.9864 5.83407 26.923 4.61764 26.1053 3.94673L25.7694 3.67083C24.958 2.98738 23.7345 3.13786 23.107 3.99062Z" fill="white"/>
<path d="M26.7282 7.16262C25.0357 8.29756 22.7536 10.1222 23.4763 11.3575C24.1989 12.5927 26.9373 11.5518 28.7756 10.6677C29.7328 10.2099 30.0942 9.0437 29.5617 8.13451L29.3398 7.75829C28.8137 6.84283 27.6093 6.57321 26.7282 7.16262Z" fill="white"/>
<path d="M29.0281 11.3845C27.0439 11.8799 24.2675 12.8203 24.5211 14.2312C24.7746 15.6419 27.7095 15.5855 29.7443 15.3723C30.803 15.2658 31.5446 14.2876 31.3608 13.253L31.2847 12.8266C31.0946 11.792 30.0613 11.1274 29.0281 11.3845Z" fill="white"/>
<path d="M29.7446 16.1802C27.7098 15.9732 24.7749 15.9232 24.5213 17.3277C24.274 18.7321 27.0505 19.679 29.0346 20.1682C30.0679 20.4251 31.1011 19.7605 31.285 18.7259L31.361 18.2995C31.5449 17.2649 30.7969 16.2931 29.7446 16.1802Z" fill="white"/>
<path d="M28.7811 20.8908C26.9428 20.0065 24.198 18.9658 23.4817 20.201C22.7654 21.4362 25.0411 23.2609 26.7399 24.3958C27.6211 24.9852 28.8191 24.7092 29.3516 23.8001L29.5735 23.4239C30.0996 22.5147 29.7383 21.3484 28.7811 20.8908Z" fill="white"/>
<path d="M26.2519 24.9648C24.8256 23.5101 22.6133 21.604 21.5104 22.5257C20.4074 23.4411 21.9224 25.9304 23.1205 27.567C23.7417 28.4197 24.9651 28.5702 25.7828 27.893L26.1188 27.6172C26.9302 26.9399 26.9936 25.7235 26.2519 24.9648Z" fill="white"/>
<path d="M22.4598 27.9361C21.623 26.0863 20.2031 23.5469 18.8465 24.036C17.49 24.5251 18.0542 27.378 18.6184 29.3217C18.91 30.3312 20.0066 30.8893 21.0082 30.5257L21.4202 30.3752C22.4154 30.0179 22.8909 28.8954 22.4598 27.9361Z" fill="white"/>
<path d="M17.8248 29.4489C17.6791 27.4299 17.2163 24.5645 15.7773 24.5645C14.3384 24.5645 13.8756 27.4363 13.7299 29.4552C13.6537 30.5023 14.4969 31.399 15.5554 31.399H15.9928C17.0641 31.3927 17.901 30.5023 17.8248 29.4489Z" fill="white"/>
<path d="M12.9455 29.329C13.5096 27.3852 14.0676 24.5323 12.711 24.0432C11.3545 23.5541 9.93458 26.0998 9.09774 27.9433C8.66668 28.9026 9.14215 30.0251 10.1438 30.3824L10.5557 30.5329C11.5573 30.8902 12.6539 30.3386 12.9455 29.329Z" fill="white"/>
<path d="M8.43993 27.5738C9.63798 25.9373 11.1531 23.448 10.0438 22.5263C8.94069 21.6109 6.72211 23.517 5.30218 24.9716C4.5605 25.7304 4.62393 26.9469 5.44166 27.6177L5.77761 27.8936C6.59534 28.5771 7.81881 28.4265 8.43993 27.5738Z" fill="white"/>
<path d="M4.81971 24.4007C6.51225 23.2657 8.79428 21.4412 8.0717 20.2059C7.34894 18.9706 4.61054 20.0115 2.77227 20.8956C1.81506 21.3534 1.45369 22.5196 1.9862 23.4288L2.20809 23.805C2.74049 24.7205 3.94489 24.99 4.81971 24.4007Z" fill="white"/>
<path d="M2.51643 20.1807C4.50055 19.6852 7.27708 18.7447 7.02353 17.334C6.76998 15.9232 3.83501 15.9796 1.80017 16.1928C0.74161 16.2994 -7.83324e-05 17.2776 0.183782 18.3122L0.259825 18.7385C0.456285 19.7731 1.48954 20.4377 2.51643 20.1807Z" fill="white"/>
<path d="M1.80798 15.3851C3.84282 15.5921 6.77779 15.6421 7.03134 14.2376C7.28489 12.8331 4.50201 11.8863 2.51801 11.3971C1.48475 11.1402 0.451497 11.8048 0.267636 12.8394L0.191595 13.2658C0.00773464 14.3004 0.74942 15.2722 1.80798 15.3851Z" fill="white"/>
<path d="M2.77085 10.6759C4.60913 11.56 7.35399 12.6009 8.07028 11.3656C8.78653 10.1304 6.51084 8.30576 4.81205 7.17083C3.93088 6.58142 2.73283 6.85732 2.20031 7.76651L1.97844 8.14272C1.45239 9.05191 1.81365 10.2182 2.77085 10.6759Z" fill="white"/>
<path d="M5.29369 6.59935C6.71998 8.05403 8.93234 9.96014 10.0352 9.03846C11.1383 8.12303 9.6233 5.63373 8.42525 3.9972C7.80396 3.14444 6.58049 2.99395 5.76277 3.67114L5.42682 3.94703C4.6218 4.62422 4.55836 5.84065 5.29369 6.59935Z" fill="white"/>
<path d="M9.09271 3.62741C9.92939 5.47714 11.3493 8.01661 12.706 7.5275C14.0625 7.03843 13.4984 4.18546 12.9342 2.2417C12.6425 1.23219 11.5459 0.674126 10.5443 1.0378L10.1323 1.18829C9.13712 1.5457 8.65532 2.66806 9.09271 3.62741Z" fill="white"/>
<path d="M15.7098 6.25463C15.7098 6.25463 17.2312 3.30762 15.7098 3.30762C14.1885 3.30762 15.7098 6.25463 15.7098 6.25463Z" fill="white"/>
<path d="M19.0055 6.80652C19.0055 6.80652 21.4524 4.54924 20.0261 4.03508C18.5998 3.52092 19.0055 6.80652 19.0055 6.80652Z" fill="white"/>
<path d="M21.9106 8.43729C21.9106 8.43729 24.9914 7.14563 23.825 6.18003C22.6587 5.21441 21.9106 8.43729 21.9106 8.43729Z" fill="white"/>
<path d="M24.0713 10.9562C24.0713 10.9562 27.4119 10.7869 26.6513 9.48267C25.8906 8.1784 24.0713 10.9562 24.0713 10.9562Z" fill="white"/>
<path d="M25.2368 14.0547C25.2368 14.0547 28.438 15.0265 28.1718 13.5404C27.9055 12.0544 25.2368 14.0547 25.2368 14.0547Z" fill="white"/>
<path d="M25.2554 17.3605C25.2554 17.3605 27.9241 19.3544 28.1903 17.8746C28.4565 16.3886 25.2554 17.3605 25.2554 17.3605Z" fill="white"/>
<path d="M24.1338 20.4683C24.1338 20.4683 25.953 23.246 26.7138 21.9418C27.4744 20.6376 24.1338 20.4683 24.1338 20.4683Z" fill="white"/>
<path d="M22.0049 23.0156C22.0049 23.0156 22.7529 26.2384 23.9193 25.2729C25.0856 24.3073 22.0049 23.0156 22.0049 23.0156Z" fill="white"/>
<path d="M19.1257 24.6895C19.1257 24.6895 18.7138 27.975 20.1464 27.4608C21.5726 26.9404 19.1257 24.6895 19.1257 24.6895Z" fill="white"/>
<path d="M15.8363 25.2856C15.8363 25.2856 14.3149 28.2326 15.8363 28.2326C17.3577 28.2326 15.8363 25.2856 15.8363 25.2856Z" fill="white"/>
<path d="M12.5471 24.7261C12.5471 24.7261 10.1003 26.9833 11.5266 27.4976C12.9528 28.0117 12.5471 24.7261 12.5471 24.7261Z" fill="white"/>
<path d="M9.64344 23.0962C9.64344 23.0962 6.56273 24.3879 7.72899 25.3534C8.8891 26.3191 9.64344 23.0962 9.64344 23.0962Z" fill="white"/>
<path d="M7.47583 20.5757C7.47583 20.5757 4.13513 20.7449 4.89588 22.0491C5.65652 23.3534 7.47583 20.5757 7.47583 20.5757Z" fill="white"/>
<path d="M6.31729 17.4787C6.31729 17.4787 3.11618 16.5067 3.38243 17.9928C3.64234 19.4726 6.31729 17.4787 6.31729 17.4787Z" fill="white"/>
<path d="M6.29132 14.1759C6.29132 14.1759 3.6226 12.182 3.35635 13.6618C3.09645 15.1478 6.29132 14.1759 6.29132 14.1759Z" fill="white"/>
<path d="M7.41184 11.0646C7.41184 11.0646 5.59264 8.28685 4.83188 9.59104C4.07124 10.8952 7.41184 11.0646 7.41184 11.0646Z" fill="white"/>
<path d="M9.5414 8.51884C9.5414 8.51884 8.79338 5.29595 7.62698 6.26157C6.4606 7.22718 9.5414 8.51884 9.5414 8.51884Z" fill="white"/>
<path d="M12.427 6.84461C12.427 6.84461 12.8391 3.55901 11.4065 4.07317C9.98019 4.5936 12.427 6.84461 12.427 6.84461Z" fill="white"/>
</g>
</g>
</g>
</g>
</g>
<defs>
<clipPath id="clip0_579_35808">
<rect width="32" height="32" fill="white"/>
</clipPath>
<clipPath id="clip1_579_35808">
<rect width="32" height="32" fill="white"/>
</clipPath>
<clipPath id="clip2_579_35808">
<rect width="32" height="32" fill="white"/>
</clipPath>
<clipPath id="clip3_579_35808">
<rect width="32" height="32" fill="white"/>
</clipPath>
</defs>
</svg>
