<svg width="174" height="41" viewBox="0 0 174 41" fill="none" xmlns="http://www.w3.org/2000/svg">
<mask id="mask0_9525_57443" style="mask-type:luminance" maskUnits="userSpaceOnUse" x="4" y="4" width="33" height="33">
<path d="M4.38992 4.29883H36.5977V36.5065H4.38992V4.29883Z" fill="white"/>
</mask>
<g mask="url(#mask0_9525_57443)">
<path d="M18.3798 6.30413C18.5301 8.38705 19.0011 11.3433 20.4921 11.3433C21.9832 11.3433 22.454 8.38058 22.6044 6.30413C22.6829 5.21738 21.8196 4.29883 20.721 4.29883H20.2697C19.1711 4.29883 18.3078 5.21738 18.3798 6.30413Z" fill="#171717"/>
<path d="M18.3798 6.3028C18.5303 8.38573 19.0077 11.3419 20.4922 11.3419C21.9766 11.3419 22.454 8.37925 22.6045 6.29633C22.6829 5.21605 21.8132 4.29102 20.721 4.29102H20.2699C19.1647 4.2975 18.3014 5.21605 18.3798 6.3028Z" fill="#171717"/>
<path d="M23.413 6.42678C22.8309 8.43209 22.2555 11.3753 23.655 11.8799C25.0544 12.3845 26.5193 9.75818 27.3826 7.85637C27.8273 6.86666 27.3368 5.70876 26.3035 5.34005L25.8785 5.1848C24.8452 4.81608 23.7138 5.38532 23.413 6.42678Z" fill="#171717"/>
<path d="M28.0571 8.23603C26.8211 9.92436 25.2581 12.4924 26.4026 13.4433C27.547 14.3941 29.8294 12.4212 31.2942 10.9205C32.0594 10.1378 31.994 8.8829 31.1504 8.19074L30.8038 7.90612C29.9667 7.20103 28.7045 7.35627 28.0571 8.23603Z" fill="#171717"/>
<path d="M31.7932 11.508C30.0472 12.6788 27.6929 14.5612 28.4384 15.8356C29.1839 17.1099 32.009 16.0361 33.9055 15.1241C34.893 14.6518 35.2658 13.4486 34.7165 12.5107L34.4876 12.1225C33.9448 11.1781 32.7023 10.8999 31.7932 11.508Z" fill="#171717"/>
<path d="M34.1661 15.8638C32.1192 16.3748 29.2548 17.3451 29.5164 18.8005C29.778 20.256 32.8058 20.1978 34.9051 19.9778C35.9972 19.8679 36.7623 18.8587 36.5727 17.7914L36.4942 17.3515C36.298 16.2842 35.232 15.5985 34.1661 15.8638Z" fill="#171717"/>
<path d="M34.9052 20.8115C32.806 20.598 29.7782 20.5464 29.5166 21.9954C29.2615 23.4443 32.1259 24.4211 34.1728 24.9257C35.2388 25.1908 36.3047 24.5052 36.4944 23.4378L36.5728 22.998C36.7625 21.9306 35.9908 20.928 34.9052 20.8115Z" fill="#171717"/>
<path d="M33.9112 25.6712C32.0147 24.7591 29.1831 23.6853 28.4441 24.9597C27.7051 26.234 30.0529 28.1164 31.8055 29.2873C32.7145 29.8953 33.9505 29.6106 34.4998 28.6727L34.7287 28.2846C35.2715 27.3466 34.8987 26.1434 33.9112 25.6712Z" fill="#171717"/>
<path d="M31.3014 29.8754C29.83 28.3746 27.5476 26.4081 26.4097 27.3591C25.2718 28.3034 26.8348 30.8716 28.0708 32.5599C28.7117 33.4397 29.9738 33.5949 30.8174 32.8963L31.164 32.6117C32.0011 31.913 32.0665 30.6581 31.3014 29.8754Z" fill="#171717"/>
<path d="M27.3903 32.9384C26.527 31.03 25.0622 28.4103 23.6626 28.9148C22.2632 29.4194 22.8453 32.3626 23.4273 34.3679C23.7281 35.4094 24.8594 35.9851 25.8927 35.61L26.3178 35.4547C27.3445 35.086 27.835 33.9281 27.3903 32.9384Z" fill="#171717"/>
<path d="M22.6083 34.4999C22.458 32.417 21.9806 29.4609 20.4961 29.4609C19.0115 29.4609 18.5342 32.4236 18.3838 34.5065C18.3052 35.5867 19.1751 36.5118 20.2672 36.5118H20.7184C21.8236 36.5053 22.6869 35.5867 22.6083 34.4999Z" fill="#171717"/>
<path d="M17.574 34.3777C18.1559 32.3723 18.7315 29.4291 17.332 28.9245C15.9326 28.42 14.4677 31.0463 13.6044 32.948C13.1597 33.9377 13.6502 35.0957 14.6835 35.4644L15.1085 35.6197C16.1418 35.9883 17.2731 35.4192 17.574 34.3777Z" fill="#171717"/>
<path d="M12.9257 32.5653C14.1617 30.8771 15.7247 28.309 14.5803 27.358C13.4423 26.4137 11.1535 28.3801 9.68862 29.8808C8.92346 30.6636 8.98891 31.9185 9.83252 32.6107L10.1791 32.8952C11.0227 33.6004 12.2849 33.4451 12.9257 32.5653Z" fill="#171717"/>
<path d="M9.19085 29.2912C10.937 28.1203 13.2913 26.238 12.5458 24.9636C11.8002 23.6892 8.97506 24.7631 7.0786 25.6752C6.09109 26.1474 5.71828 27.3506 6.26766 28.2885L6.49656 28.6767C7.04582 29.6211 8.28834 29.8992 9.19085 29.2912Z" fill="#171717"/>
<path d="M6.81592 24.9389C8.86284 24.4278 11.7273 23.4575 11.4657 22.0021C11.2041 20.5466 8.17624 20.6048 6.07699 20.8248C4.98492 20.9347 4.21975 21.9439 4.40943 23.0112L4.48788 23.4511C4.69056 24.5184 5.75652 25.2041 6.81592 24.9389Z" fill="#171717"/>
<path d="M6.08482 19.9916C8.18408 20.2051 11.212 20.2567 11.4736 18.8077C11.7351 17.3588 8.86412 16.382 6.81732 15.8774C5.75136 15.6123 4.6854 16.2979 4.49572 17.3653L4.41727 17.8051C4.22759 18.8725 4.99275 19.8751 6.08482 19.9916Z" fill="#171717"/>
<path d="M7.0786 15.1321C8.97506 16.0442 11.8068 17.118 12.5458 15.8436C13.2847 14.5694 10.937 12.6869 9.18441 11.5161C8.27535 10.908 7.03937 11.1927 6.49 12.1306L6.2611 12.5187C5.7184 13.4567 6.09109 14.6599 7.0786 15.1321Z" fill="#171717"/>
<path d="M9.68055 10.9276C11.152 12.4284 13.4344 14.3948 14.5722 13.444C15.7102 12.4995 14.1472 9.93146 12.9112 8.24312C12.2703 7.36338 11.0081 7.20812 10.1645 7.90674L9.81789 8.19137C8.98739 8.89 8.92194 10.1449 9.68055 10.9276Z" fill="#171717"/>
<path d="M13.5995 7.86086C14.4626 9.76913 15.9275 12.3889 17.3271 11.8844C18.7265 11.3798 18.1446 8.43657 17.5625 6.43127C17.2616 5.38981 16.1303 4.81409 15.097 5.18928L14.672 5.34453C13.6453 5.71325 13.1482 6.87114 13.5995 7.86086Z" fill="#171717"/>
<path d="M20.4255 10.5715C20.4255 10.5715 21.995 7.53125 20.4255 7.53125C18.856 7.53125 20.4255 10.5715 20.4255 10.5715Z" fill="#171717"/>
<path d="M23.8263 11.1421C23.8263 11.1421 26.3506 8.81334 24.8792 8.2829C23.4078 7.75247 23.8263 11.1421 23.8263 11.1421Z" fill="#171717"/>
<path d="M26.8233 12.8235C26.8233 12.8235 30.0016 11.491 28.7983 10.4948C27.595 9.49865 26.8233 12.8235 26.8233 12.8235Z" fill="#171717"/>
<path d="M29.0522 15.4225C29.0522 15.4225 32.4986 15.2478 31.7139 13.9023C30.9291 12.5569 29.0522 15.4225 29.0522 15.4225Z" fill="#171717"/>
<path d="M30.2547 18.6186C30.2547 18.6186 33.5573 19.6212 33.2826 18.0881C33.0079 16.555 30.2547 18.6186 30.2547 18.6186Z" fill="#171717"/>
<path d="M30.2743 22.0291C30.2743 22.0291 33.0275 24.0861 33.3021 22.5594C33.5768 21.0264 30.2743 22.0291 30.2743 22.0291Z" fill="#171717"/>
<path d="M29.1167 25.2344C29.1167 25.2344 30.9935 28.1001 31.7783 26.7546C32.5631 25.4092 29.1167 25.2344 29.1167 25.2344Z" fill="#171717"/>
<path d="M26.921 27.8633C26.921 27.8633 27.6926 31.1881 28.8959 30.192C30.0992 29.1959 26.921 27.8633 26.921 27.8633Z" fill="#171717"/>
<path d="M23.9513 29.5898C23.9513 29.5898 23.5263 32.9793 25.0042 32.4489C26.4756 31.912 23.9513 29.5898 23.9513 29.5898Z" fill="#171717"/>
<path d="M20.5563 30.2051C20.5563 30.2051 18.9868 33.2454 20.5563 33.2454C22.1259 33.2454 20.5563 30.2051 20.5563 30.2051Z" fill="#171717"/>
<path d="M17.1637 29.6289C17.1637 29.6289 14.6394 31.9576 16.1109 32.4881C17.5823 33.0185 17.1637 29.6289 17.1637 29.6289Z" fill="#171717"/>
<path d="M14.168 27.9473C14.168 27.9473 10.9898 29.2798 12.1929 30.276C13.3898 31.2721 14.168 27.9473 14.168 27.9473Z" fill="#171717"/>
<path d="M11.9316 25.3477C11.9316 25.3477 8.48515 25.5224 9.26999 26.8678C10.0547 28.2134 11.9316 25.3477 11.9316 25.3477Z" fill="#171717"/>
<path d="M10.7363 22.1521C10.7363 22.1521 7.43387 21.1494 7.70855 22.6825C7.97668 24.2092 10.7363 22.1521 10.7363 22.1521Z" fill="#171717"/>
<path d="M10.709 18.7427C10.709 18.7427 7.95579 16.6856 7.6811 18.2123C7.41297 19.7454 10.709 18.7427 10.709 18.7427Z" fill="#171717"/>
<path d="M11.8652 15.5339C11.8652 15.5339 9.98841 12.6682 9.20358 14.0137C8.41886 15.3591 11.8652 15.5339 11.8652 15.5339Z" fill="#171717"/>
<path d="M14.0625 12.9075C14.0625 12.9075 13.2908 9.58262 12.0875 10.5788C10.8842 11.575 14.0625 12.9075 14.0625 12.9075Z" fill="#171717"/>
<path d="M17.039 11.1792C17.039 11.1792 17.4641 7.78957 15.9862 8.32001C14.5147 8.85691 17.039 11.1792 17.039 11.1792Z" fill="#171717"/>
</g>
<path d="M57.1826 15.7811C57.1826 11.8765 54.0589 10.8947 50.422 10.8947H45.5801V26.6472H49.0608V21.1137H50.6674C53.3671 21.1137 57.1826 20.3551 57.1826 15.7811ZM53.6572 16.0043C53.6572 18.0346 51.9615 18.4362 50.6674 18.4362H49.0608V13.5945H50.6227C51.7829 13.5945 53.6572 13.8622 53.6572 16.0043ZM67.7164 26.5802L67.5379 24.5499C67.4041 24.5945 67.1586 24.6615 67.0248 24.6615C66.6454 24.6615 66.6009 24.3045 66.6009 23.8806V18.3916C66.6009 14.9555 63.901 14.3531 62.2276 14.3531C60.1748 14.3531 58.7246 14.7324 57.4082 15.5802L58.5014 17.8116C59.0146 17.3652 60.0633 16.7182 61.4467 16.7182C63.0978 16.7182 63.6333 17.5214 63.6333 18.3693V19.1503C63.6333 19.5519 63.3433 19.5742 62.8524 19.5742C60.2194 19.5742 56.828 20.1989 56.828 23.4342C56.828 25.4647 58.256 26.982 60.3533 26.982C61.9822 26.982 62.897 26.4018 63.8788 25.2415C64.0572 26.1786 64.615 26.8704 65.7306 26.8704C66.467 26.8704 67.2479 26.6918 67.7164 26.5802ZM63.611 22.631C63.611 23.2111 63.4547 23.6574 63.0978 24.0367C62.6962 24.4606 62.116 24.6838 61.4244 24.6838C60.5542 24.6838 59.9294 24.059 59.9294 23.1888C59.9294 21.7608 61.5805 21.4931 62.6738 21.4931C62.9415 21.4931 63.2763 21.4931 63.611 21.5153V22.631ZM76.5419 23.0772C76.5419 21.0914 75.337 20.1766 73.6412 19.5519L72.5926 19.1726C71.7671 18.8825 71.1869 18.5255 71.1869 17.9007C71.1869 17.3652 71.5662 16.7182 72.838 16.7182C73.5967 16.7182 74.556 16.9859 75.2478 17.4323L76.2072 15.134C75.5824 14.8216 74.4892 14.3531 72.9942 14.3531C70.2052 14.3531 68.3086 16.1381 68.3086 18.3916C68.3086 20.1321 69.335 21.0469 70.8745 21.6492L71.8562 22.0285C72.9719 22.4526 73.6189 22.6979 73.6189 23.4788C73.6189 24.416 72.6148 24.7061 71.7893 24.7061C70.8523 24.7061 69.7589 24.349 69.0002 23.8136L68.0409 26.1118C68.7102 26.5134 70.0489 27.0266 71.5439 27.0266C74.6676 27.0266 76.5419 25.3977 76.5419 23.0772ZM85.6816 23.0772C85.6816 21.0914 84.4766 20.1766 82.7809 19.5519L81.7323 19.1726C80.9067 18.8825 80.3265 18.5255 80.3265 17.9007C80.3265 17.3652 80.7059 16.7182 81.9777 16.7182C82.7363 16.7182 83.6957 16.9859 84.3875 17.4323L85.3469 15.134C84.7221 14.8216 83.6289 14.3531 82.1339 14.3531C79.3449 14.3531 77.4483 16.1381 77.4483 18.3916C77.4483 20.1321 78.4747 21.0469 80.0142 21.6492L80.9959 22.0285C82.1116 22.4526 82.7586 22.6979 82.7586 23.4788C82.7586 24.416 81.7545 24.7061 80.929 24.7061C79.992 24.7061 78.8986 24.349 78.1399 23.8136L77.1805 26.1118C77.8499 26.5134 79.1886 27.0266 80.6836 27.0266C83.8073 27.0266 85.6816 25.3977 85.6816 23.0772ZM90.7381 11.564C90.7381 10.6046 90.0687 9.91293 88.9978 9.91293C87.9267 9.91293 87.235 10.6046 87.235 11.564C87.235 12.5235 87.9267 13.2152 88.9978 13.2152C90.0687 13.2152 90.7381 12.5235 90.7381 11.564ZM91.6529 26.5802L91.4744 24.5499C91.3406 24.5945 91.0951 24.6615 90.9612 24.6615C90.5819 24.6615 90.5374 24.3045 90.5374 23.8806V14.7324H87.4135V24.7061C87.4135 26.1341 88.3284 26.8704 89.7787 26.8704C90.5149 26.8704 91.2513 26.6918 91.6529 26.5802ZM103.723 20.7121C103.723 17.3207 101.983 14.3084 98.0779 14.3084C94.2178 14.3084 92.3212 17.2984 92.3212 20.6675C92.3212 24.059 94.0615 27.0711 97.9663 27.0711C101.826 27.0711 103.723 24.0813 103.723 20.7121ZM100.465 20.7344C100.465 22.4079 99.9521 24.6168 97.9663 24.6168C95.9804 24.6168 95.5788 22.3186 95.5788 20.6453C95.5788 18.9718 96.092 16.7628 98.0779 16.7628C100.064 16.7628 100.465 19.061 100.465 20.7344ZM115.273 26.6472V18.4586C115.273 16.1381 114.224 14.3531 111.569 14.3531C109.94 14.3531 108.825 15.1563 107.977 16.4282V14.7324H105.076V26.6472H108.2V19.3287C108.2 18.5255 108.244 18.2355 108.847 17.6553C109.181 17.343 109.739 17.0752 110.364 17.0752C111.725 17.0752 112.149 17.9007 112.149 19.1057V26.6472H115.273ZM125.831 10.3369C124.983 10.0691 124.135 9.89062 122.797 9.89062C120.365 9.89062 118.022 11.564 118.022 14.0631V14.9555H116.014V17.1868H118.044V31.1098H121.168V17.1868H123.89V14.9555H121.123V14.0184C121.123 12.9697 121.793 12.3004 123.064 12.3004C123.734 12.3004 124.425 12.4788 125.073 12.8358L125.831 10.3369ZM132.287 14.6654C132.042 14.5761 131.596 14.4423 131.15 14.4423C129.677 14.4423 128.896 15.3795 128.182 16.5175C128.182 15.4464 127.758 14.5316 126.352 14.5316C125.616 14.5316 124.835 14.7101 124.366 14.8216L124.545 16.8521C124.679 16.8075 124.924 16.7405 125.058 16.7405C125.438 16.7405 125.482 17.0975 125.482 17.5214V26.6472H128.606V19.4626C128.606 18.8155 128.628 18.3248 129.052 17.9454C129.342 17.6777 129.699 17.4768 130.369 17.4768C130.792 17.4768 131.239 17.6777 131.462 17.7891L132.287 14.6654ZM143.906 26.5802L143.728 24.5499C143.593 24.5945 143.349 24.6615 143.215 24.6615C142.835 24.6615 142.79 24.3045 142.79 23.8806V14.7324H139.667V22.0732C139.667 22.8765 139.621 23.1888 139.087 23.769C138.797 24.0813 138.306 24.3267 137.726 24.3267C136.543 24.3267 136.074 23.4788 136.074 22.274V14.7324H132.951V22.921C132.951 25.2415 134.022 27.0266 136.588 27.0266C138.083 27.0266 139.087 26.3125 139.89 25.1747C139.979 26.2011 140.514 26.8704 141.92 26.8704C142.656 26.8704 143.437 26.6918 143.906 26.5802ZM149.085 11.564C149.085 10.6046 148.415 9.91293 147.344 9.91293C146.273 9.91293 145.582 10.6046 145.582 11.564C145.582 12.5235 146.273 13.2152 147.344 13.2152C148.415 13.2152 149.085 12.5235 149.085 11.564ZM150 26.5802L149.821 24.5499C149.687 24.5945 149.441 24.6615 149.308 24.6615C148.928 24.6615 148.884 24.3045 148.884 23.8806V14.7324H145.761V24.7061C145.761 26.1341 146.675 26.8704 148.125 26.8704C148.861 26.8704 149.598 26.6918 150 26.5802ZM158.276 26.7142L157.963 24.416C157.696 24.5052 157.25 24.6615 156.603 24.6615C155.889 24.6615 155.241 24.3937 155.241 23.2111V17.1868H157.963V14.9555H155.241V11.5417L152.118 12.5458V14.9555H150.132V17.1868H152.118V23.5904C152.118 25.8886 153.434 27.0266 155.554 27.0266C156.603 27.0266 157.696 26.8704 158.276 26.7142Z" fill="#171717"/>
</svg>
