<svg xmlns="http://www.w3.org/2000/svg" xmlns:xlink="http://www.w3.org/1999/xlink" viewBox="0 0 337 337"><defs><linearGradient id="a" x1="530.24" y1="356.02" x2="384.33" y2="608.76" gradientTransform="matrix(1, 0, 0, -1, 0, 1026)" gradientUnits="userSpaceOnUse"><stop offset="0" stop-color="#1e8e3e"/><stop offset="1" stop-color="#34a853"/></linearGradient><linearGradient id="b" x1="487.42" y1="345.06" x2="633.34" y2="597.79" gradientTransform="matrix(1, 0, 0, -1, 0, 1026)" gradientUnits="userSpaceOnUse"><stop offset="0" stop-color="#fcc934"/><stop offset="1" stop-color="#fbbc04"/></linearGradient><linearGradient id="c" x1="366.08" y1="577.18" x2="657.91" y2="577.18" gradientTransform="matrix(1, 0, 0, -1, 0, 1026)" gradientUnits="userSpaceOnUse"><stop offset="0" stop-color="#d93025"/><stop offset="1" stop-color="#ea4335"/></linearGradient></defs><title>Google Chrome logo</title><path d="M512,596.25A84.26,84.26,0,1,0,427.75,512,84.26,84.26,0,0,0,512,596.25Z" transform="translate(-343.5 -343.5)" style="fill:#fff"/><path d="M439,554.14l-73-126.36A168.47,168.47,0,0,0,512,680.5l73-126.36v0a84.24,84.24,0,0,1-145.93,0Z" transform="translate(-343.5 -343.5)" style="fill:url(#a)"/><path d="M585,554.13,512,680.5a168.47,168.47,0,0,0,145.9-252.75H512a84.24,84.24,0,0,1,73,126.37Z" transform="translate(-343.5 -343.5)" style="fill:url(#b)"/><path d="M512,578.71A66.7,66.7,0,1,0,445.3,512,66.7,66.7,0,0,0,512,578.71Z" transform="translate(-343.5 -343.5)" style="fill:#1a73e8"/><path d="M512,427.75H657.91a168.47,168.47,0,0,0-291.83,0l73,126.36h0A84.24,84.24,0,0,1,512,427.75Z" transform="translate(-343.5 -343.5)" style="fill:url(#c)"/></svg>