<svg width="65" height="65" viewBox="0 0 65 65" fill="none" xmlns="http://www.w3.org/2000/svg">
<mask id="mask0_502_37494" style="mask-type:luminance" maskUnits="userSpaceOnUse" x="0" y="0" width="65" height="65">
<path d="M0.226562 0.293945H64.2266V64.2939H0.226562V0.293945Z" fill="white"/>
</mask>
<g mask="url(#mask0_502_37494)">
<path d="M28.0126 4.32818C28.3113 8.53075 29.2472 14.4953 32.2102 14.4953C35.1735 14.4953 36.1091 8.5177 36.4081 4.32818C36.564 2.13553 34.8484 0.282227 32.6651 0.282227H31.7684C29.5851 0.282227 27.8695 2.13553 28.0126 4.32818Z" fill="#342E35"/>
<path d="M28.0126 4.32855C28.3116 8.53114 29.2603 14.4957 32.2105 14.4957C35.1605 14.4957 36.1092 8.51808 36.4082 4.31551C36.5641 2.1359 34.8357 0.269531 32.6652 0.269531H31.7687C29.5723 0.282598 27.8567 2.1359 28.0126 4.32855Z" fill="#171717"/>
<path d="M38.0172 4.57668C36.8605 8.62265 35.7168 14.5611 38.4981 15.5791C41.2792 16.5971 44.1904 11.2982 45.9059 7.46105C46.7896 5.46419 45.8149 3.12796 43.7615 2.38404L42.9168 2.0708C40.8634 1.32686 38.6149 2.47539 38.0172 4.57668Z" fill="#171717"/>
<path d="M47.2422 8.22884C44.7859 11.6353 41.6799 16.8167 43.9542 18.7353C46.2285 20.6537 50.7642 16.6731 53.6753 13.6452C55.1959 12.066 55.0659 9.53399 53.3894 8.13747L52.7006 7.5632C51.0371 6.1406 48.5288 6.45382 47.2422 8.22884Z" fill="#171717"/>
<path d="M54.6679 14.8312C51.1979 17.1935 46.5193 20.9915 48.0008 23.5627C49.4824 26.1337 55.0967 23.9672 58.8656 22.127C60.8281 21.1741 61.5688 18.7466 60.4772 16.8542L60.0223 16.0711C58.9436 14.1655 56.4743 13.6043 54.6679 14.8312Z" fill="#171717"/>
<path d="M59.3865 23.6202C55.3187 24.6513 49.6264 26.6089 50.1463 29.5455C50.6661 32.482 56.6833 32.3646 60.8551 31.9209C63.0255 31.699 64.546 29.6629 64.1691 27.5094L64.0132 26.6219C63.6233 24.4684 61.5049 23.085 59.3865 23.6202Z" fill="#171717"/>
<path d="M60.8555 33.6016C56.6837 33.1709 50.6665 33.0667 50.1466 35.9902C49.6398 38.9135 55.3321 40.8844 59.3999 41.9025C61.5183 42.4375 63.6367 41.054 64.0135 38.9005L64.1695 38.0131C64.5464 35.8596 63.0128 33.8367 60.8555 33.6016Z" fill="#171717"/>
<path d="M58.8829 43.4064C55.114 41.566 49.4867 39.3995 48.0181 41.9707C46.5495 44.5417 51.2152 48.3398 54.6981 50.7022C56.5046 51.929 58.9609 51.3545 60.0526 49.4621L60.5075 48.6791C61.5861 46.7867 60.8453 44.3591 58.8829 43.4064Z" fill="#171717"/>
<path d="M53.6955 51.8875C50.7713 48.8595 46.2357 44.8918 43.9743 46.8104C41.713 48.7158 44.8191 53.8973 47.2754 57.3038C48.549 59.0788 51.0572 59.3921 52.7338 57.9825L53.4225 57.4083C55.0861 55.9986 55.216 53.4666 53.6955 51.8875Z" fill="#171717"/>
<path d="M45.9194 58.0719C44.2039 54.2216 41.2928 48.9359 38.5115 49.9539C35.7304 50.972 36.8871 56.9103 38.0438 60.9562C38.6415 63.0575 40.8897 64.2191 42.9432 63.4623L43.788 63.149C45.8284 62.4051 46.8031 60.0688 45.9194 58.0719Z" fill="#171717"/>
<path d="M36.4198 61.2216C36.121 57.019 35.1724 51.0547 32.2222 51.0547C29.2719 51.0547 28.3233 57.0322 28.0245 61.2348C27.8684 63.4143 29.597 65.2807 31.7673 65.2807H32.664C34.8604 65.2677 36.5759 63.4143 36.4198 61.2216Z" fill="#171717"/>
<path d="M26.4099 60.9738C27.5663 56.9276 28.7102 50.9893 25.9289 49.9712C23.1479 48.9533 20.2367 54.2522 18.5211 58.0892C17.6374 60.0861 18.6121 62.4224 20.6656 63.1663L21.5102 63.4796C23.5637 64.2234 25.8119 63.0751 26.4099 60.9738Z" fill="#171717"/>
<path d="M17.1744 57.3158C19.6307 53.9095 22.7368 48.728 20.4625 46.8094C18.201 44.9039 13.6525 48.8714 10.7413 51.8994C9.22073 53.4787 9.3508 56.0108 11.0273 57.4072L11.7161 57.9814C13.3926 59.4041 15.9009 59.0907 17.1744 57.3158Z" fill="#171717"/>
<path d="M9.75625 50.7109C13.2263 48.3485 17.9049 44.5507 16.4234 41.9795C14.9417 39.4082 9.32741 41.5749 5.55859 43.4151C3.59612 44.3678 2.85524 46.7954 3.94701 48.6878L4.40191 49.4711C5.49345 51.3765 7.96271 51.9377 9.75625 50.7109Z" fill="#171717"/>
<path d="M5.03298 41.9299C9.1008 40.8988 14.7932 38.9411 14.2734 36.0046C13.7536 33.068 7.73633 33.1855 3.5645 33.6292C1.39423 33.8511 -0.126374 35.8872 0.250576 38.0407L0.40648 38.9282C0.809261 41.0817 2.92764 42.4651 5.03298 41.9299Z" fill="#171717"/>
<path d="M3.57824 31.9493C7.75007 32.3801 13.7673 32.4843 14.2872 29.5607C14.807 26.6374 9.10152 24.6666 5.03393 23.6484C2.91555 23.1135 0.797173 24.4969 0.420223 26.6504L0.264324 27.5379C-0.112627 29.6914 1.40798 31.7142 3.57824 31.9493Z" fill="#171717"/>
<path d="M5.55271 22.1432C9.32153 23.9836 14.949 26.1501 16.4175 23.5789C17.886 21.0078 13.2204 17.2098 9.73757 14.8475C7.93099 13.6206 5.47476 14.1949 4.38299 16.0874L3.92809 16.8704C2.84959 18.7629 3.59023 21.1905 5.55271 22.1432Z" fill="#171717"/>
<path d="M10.7291 13.6614C13.6533 16.6893 18.189 20.6569 20.4503 18.7384C22.7117 16.8329 19.6056 11.6515 17.1494 8.24501C15.8756 6.47001 13.3673 6.15677 11.6908 7.56633L11.002 8.1406C9.35159 9.55018 9.22152 12.0822 10.7291 13.6614Z" fill="#171717"/>
<path d="M18.5171 7.47497C20.2325 11.3252 23.1436 16.611 25.9249 15.593C28.706 14.575 27.5495 8.63654 26.3928 4.59059C25.7948 2.48931 23.5466 1.3277 21.4931 2.08469L20.6485 2.39793C18.6081 3.14188 17.6203 5.47808 18.5171 7.47497Z" fill="#171717"/>
<path d="M32.0805 12.9428C32.0805 12.9428 35.1997 6.80859 32.0805 6.80859C28.9616 6.80859 32.0805 12.9428 32.0805 12.9428Z" fill="#171717"/>
<path d="M38.8378 14.0914C38.8378 14.0914 43.8544 9.39289 40.9304 8.32266C38.0062 7.25243 38.8378 14.0914 38.8378 14.0914Z" fill="#171717"/>
<path d="M44.7943 17.4854C44.7943 17.4854 51.1104 14.7968 48.7191 12.7869C46.3278 10.7769 44.7943 17.4854 44.7943 17.4854Z" fill="#171717"/>
<path d="M49.2198 22.7289C49.2198 22.7289 56.0688 22.3763 54.5093 19.6617C52.9497 16.947 49.2198 22.7289 49.2198 22.7289Z" fill="#171717"/>
<path d="M51.6126 29.1765C51.6126 29.1765 58.1757 31.1993 57.6299 28.1061C57.084 25.0129 51.6126 29.1765 51.6126 29.1765Z" fill="#171717"/>
<path d="M51.6478 36.057C51.6478 36.057 57.1192 40.2074 57.665 37.1272C58.2108 34.034 51.6478 36.057 51.6478 36.057Z" fill="#171717"/>
<path d="M49.3526 42.5283C49.3526 42.5283 53.0825 48.3102 54.6421 45.5955C56.2016 42.8809 49.3526 42.5283 49.3526 42.5283Z" fill="#171717"/>
<path d="M44.9857 47.8301C44.9857 47.8301 46.5192 54.5384 48.9105 52.5286C51.3018 50.5188 44.9857 47.8301 44.9857 47.8301Z" fill="#171717"/>
<path d="M39.0859 51.3135C39.0859 51.3135 38.2412 58.1523 41.1784 57.0821C44.1024 55.9988 39.0859 51.3135 39.0859 51.3135Z" fill="#171717"/>
<path d="M32.3403 52.5557C32.3403 52.5557 29.2211 58.6899 32.3403 58.6899C35.4594 58.6899 32.3403 52.5557 32.3403 52.5557Z" fill="#171717"/>
<path d="M25.5976 51.3887C25.5976 51.3887 20.5812 56.0872 23.5053 57.1576C26.4295 58.2277 25.5976 51.3887 25.5976 51.3887Z" fill="#171717"/>
<path d="M19.6484 47.9971C19.6484 47.9971 13.3324 50.6858 15.7235 52.6956C18.102 54.7054 19.6484 47.9971 19.6484 47.9971Z" fill="#171717"/>
<path d="M15.2012 42.751C15.2012 42.751 8.35205 43.1033 9.91175 45.818C11.4712 48.5329 15.2012 42.751 15.2012 42.751Z" fill="#171717"/>
<path d="M12.8262 36.3051C12.8262 36.3051 6.26325 34.282 6.80913 37.3752C7.34198 40.4554 12.8262 36.3051 12.8262 36.3051Z" fill="#171717"/>
<path d="M12.7695 29.4295C12.7695 29.4295 7.29814 25.2791 6.75226 28.3593C6.21941 31.4526 12.7695 29.4295 12.7695 29.4295Z" fill="#171717"/>
<path d="M15.0645 22.9535C15.0645 22.9535 11.3347 17.1716 9.77503 19.8862C8.21556 22.6009 15.0645 22.9535 15.0645 22.9535Z" fill="#171717"/>
<path d="M19.4336 17.6544C19.4336 17.6544 17.9 10.9459 15.5086 12.9558C13.1173 14.9657 19.4336 17.6544 19.4336 17.6544Z" fill="#171717"/>
<path d="M25.3502 14.1676C25.3502 14.1676 26.1951 7.3286 23.2579 8.39883C20.3337 9.48211 25.3502 14.1676 25.3502 14.1676Z" fill="#171717"/>
</g>
</svg>
