<svg xmlns="http://www.w3.org/2000/svg" xmlns:xlink="http://www.w3.org/1999/xlink" viewBox="0 0 95.54 98.73"><defs><style>.a{fill:url(#a);}.b{fill:url(#b);}.c{fill:url(#c);}.d{fill:url(#d);}.e{fill:url(#e);}.f{fill:url(#f);}.g{fill:url(#g);}.h{fill:url(#h);}.i{fill:url(#i);}.j{fill:url(#j);}.k{fill:url(#k);}.l{fill:url(#l);}</style><linearGradient id="a" x1="549.99" y1="548.07" x2="470.59" y2="471.46" gradientTransform="matrix(1, 0, 0, -1, 0, 1026)" gradientUnits="userSpaceOnUse"><stop offset="0.05" stop-color="#fff44f"/><stop offset="0.11" stop-color="#ffe847"/><stop offset="0.22" stop-color="#ffc830"/><stop offset="0.37" stop-color="#ff980e"/><stop offset="0.4" stop-color="#ff8b16"/><stop offset="0.46" stop-color="#ff672a"/><stop offset="0.53" stop-color="#ff3647"/><stop offset="0.7" stop-color="#e31587"/></linearGradient><radialGradient id="b" cx="546.32" cy="552.41" r="99.72" gradientTransform="matrix(1, 0, 0, -1, 0, 1026)" gradientUnits="userSpaceOnUse"><stop offset="0.13" stop-color="#ffbd4f"/><stop offset="0.19" stop-color="#ffac31"/><stop offset="0.25" stop-color="#ff9d17"/><stop offset="0.28" stop-color="#ff980e"/><stop offset="0.4" stop-color="#ff563b"/><stop offset="0.47" stop-color="#ff3750"/><stop offset="0.71" stop-color="#f5156c"/><stop offset="0.78" stop-color="#eb0878"/><stop offset="0.86" stop-color="#e50080"/></radialGradient><radialGradient id="c" cx="509.89" cy="511.64" r="99.72" gradientTransform="matrix(1, 0, 0, -1, 0, 1026)" gradientUnits="userSpaceOnUse"><stop offset="0.3" stop-color="#960e18"/><stop offset="0.35" stop-color="#b11927" stop-opacity="0.74"/><stop offset="0.43" stop-color="#db293d" stop-opacity="0.34"/><stop offset="0.5" stop-color="#f5334b" stop-opacity="0.09"/><stop offset="0.53" stop-color="#ff3750" stop-opacity="0"/></radialGradient><radialGradient id="d" cx="521.91" cy="575.04" r="72.24" gradientTransform="matrix(1, 0, 0, -1, 0, 1026)" gradientUnits="userSpaceOnUse"><stop offset="0.13" stop-color="#fff44f"/><stop offset="0.25" stop-color="#ffdc3e"/><stop offset="0.51" stop-color="#ff9d12"/><stop offset="0.53" stop-color="#ff980e"/></radialGradient><radialGradient id="e" cx="498.86" cy="485.6" r="47.48" gradientTransform="matrix(1, 0, 0, -1, 0, 1026)" gradientUnits="userSpaceOnUse"><stop offset="0.35" stop-color="#3a8ee6"/><stop offset="0.47" stop-color="#5c79f0"/><stop offset="0.67" stop-color="#9059ff"/><stop offset="1" stop-color="#c139e6"/></radialGradient><radialGradient id="f" cx="465.24" cy="544.04" r="25.17" gradientTransform="matrix(0.97, -0.24, -0.28, -1.14, 212.37, 1234.37)" gradientUnits="userSpaceOnUse"><stop offset="0.21" stop-color="#9059ff" stop-opacity="0"/><stop offset="0.28" stop-color="#8c4ff3" stop-opacity="0.06"/><stop offset="0.75" stop-color="#7716a8" stop-opacity="0.45"/><stop offset="0.97" stop-color="#6e008b" stop-opacity="0.6"/></radialGradient><radialGradient id="g" cx="508.63" cy="556.49" r="34.16" gradientTransform="matrix(1, 0, 0, -1, 0, 1026)" gradientUnits="userSpaceOnUse"><stop offset="0" stop-color="#ffe226"/><stop offset="0.12" stop-color="#ffdb27"/><stop offset="0.3" stop-color="#ffc82a"/><stop offset="0.5" stop-color="#ffa930"/><stop offset="0.73" stop-color="#ff7e37"/><stop offset="0.79" stop-color="#ff7139"/></radialGradient><radialGradient id="h" cx="535.48" cy="578.15" r="145.73" gradientTransform="matrix(1, 0, 0, -1, 0, 1026)" gradientUnits="userSpaceOnUse"><stop offset="0.11" stop-color="#fff44f"/><stop offset="0.46" stop-color="#ff980e"/><stop offset="0.62" stop-color="#ff5634"/><stop offset="0.72" stop-color="#ff3647"/><stop offset="0.9" stop-color="#e31587"/></radialGradient><radialGradient id="i" cx="853.59" cy="866.55" r="106.75" gradientTransform="matrix(0.1, 0.99, 0.65, -0.07, -127.23, -320.63)" gradientUnits="userSpaceOnUse"><stop offset="0" stop-color="#fff44f"/><stop offset="0.06" stop-color="#ffe847"/><stop offset="0.17" stop-color="#ffc830"/><stop offset="0.3" stop-color="#ff980e"/><stop offset="0.36" stop-color="#ff8b16"/><stop offset="0.45" stop-color="#ff672a"/><stop offset="0.57" stop-color="#ff3647"/><stop offset="0.74" stop-color="#e31587"/></radialGradient><radialGradient id="j" cx="507.82" cy="543.84" r="90.98" gradientTransform="matrix(1, 0, 0, -1, 0, 1026)" gradientUnits="userSpaceOnUse"><stop offset="0.14" stop-color="#fff44f"/><stop offset="0.48" stop-color="#ff980e"/><stop offset="0.59" stop-color="#ff5634"/><stop offset="0.66" stop-color="#ff3647"/><stop offset="0.9" stop-color="#e31587"/></radialGradient><radialGradient id="k" cx="531.84" cy="538.51" r="99.58" gradientTransform="matrix(1, 0, 0, -1, 0, 1026)" gradientUnits="userSpaceOnUse"><stop offset="0.09" stop-color="#fff44f"/><stop offset="0.23" stop-color="#ffe141"/><stop offset="0.51" stop-color="#ffaf1e"/><stop offset="0.63" stop-color="#ff980e"/></radialGradient><linearGradient id="l" x1="549.04" y1="548.48" x2="481.48" y2="480.92" gradientTransform="matrix(1, 0, 0, -1, 0, 1026)" gradientUnits="userSpaceOnUse"><stop offset="0.17" stop-color="#fff44f" stop-opacity="0.8"/><stop offset="0.27" stop-color="#fff44f" stop-opacity="0.63"/><stop offset="0.49" stop-color="#fff44f" stop-opacity="0.22"/><stop offset="0.6" stop-color="#fff44f" stop-opacity="0"/></linearGradient></defs><title>Firefox Browser logo</title><path class="a" d="M556.32,495.75c-2.08-5-6.29-10.4-9.6-12.11a49.64,49.64,0,0,1,4.84,14.52.47.47,0,0,0,0,.08c-5.41-13.48-14.58-18.92-22.07-30.76-.38-.6-.76-1.19-1.13-1.83-.21-.36-.38-.69-.53-1a8.7,8.7,0,0,1-.71-1.88.13.13,0,0,0-.11-.13h-.11l0,0,0,0c-12,7-16.09,20.06-16.47,26.57a23.94,23.94,0,0,0-13.17,5.07,14.15,14.15,0,0,0-1.24-.94,22.17,22.17,0,0,1-.13-11.69,35.4,35.4,0,0,0-11.51,8.9h0c-1.9-2.4-1.76-10.33-1.66-12a8.4,8.4,0,0,0-1.59.85,34.78,34.78,0,0,0-4.68,4,41.83,41.83,0,0,0-4.47,5.36,40.38,40.38,0,0,0-6.42,14.49l-.06.32c-.09.42-.41,2.53-.47,3v.11a45.6,45.6,0,0,0-.79,6.6v.24a47.83,47.83,0,0,0,95,8.09c.08-.61.15-1.23.22-1.85a49.16,49.16,0,0,0-3.1-24Zm-55.13,37.44.66.33,0,0-.69-.35Zm50.39-34.93v0Z" transform="translate(-464.23 -462.63)"/><path class="b" d="M556.32,495.75c-2.08-5-6.29-10.4-9.6-12.11a49.64,49.64,0,0,1,4.84,14.52v.1c4.51,12.24,2.05,24.68-1.49,32.28-5.48,11.76-18.75,23.82-39.52,23.23-22.42-.64-42.19-17.3-45.89-39.1-.67-3.44,0-5.19.34-8a35.57,35.57,0,0,0-.77,6.6v.24a47.83,47.83,0,0,0,95,8.09c.08-.61.15-1.23.22-1.85A49.23,49.23,0,0,0,556.32,495.75Z" transform="translate(-464.23 -462.63)"/><path class="c" d="M556.32,495.75c-2.08-5-6.29-10.4-9.6-12.11a49.64,49.64,0,0,1,4.84,14.52v.1c4.51,12.24,2.05,24.68-1.49,32.28-5.48,11.76-18.75,23.82-39.52,23.23-22.42-.64-42.19-17.3-45.89-39.1-.67-3.44,0-5.19.34-8a35.57,35.57,0,0,0-.77,6.6v.24a47.83,47.83,0,0,0,95,8.09c.08-.61.15-1.23.22-1.85A49.23,49.23,0,0,0,556.32,495.75Z" transform="translate(-464.23 -462.63)"/><path class="d" d="M533.08,501.37l.3.22a26,26,0,0,0-4.44-5.8c-14.87-14.87-3.9-32.24-2-33.12l0,0c-12,7-16.09,20.06-16.47,26.57.56,0,1.11-.09,1.68-.09a24.14,24.14,0,0,1,21,12.24Z" transform="translate(-464.23 -462.63)"/><path class="e" d="M512.15,504.34c-.08,1.19-4.28,5.29-5.75,5.29-13.6,0-15.81,8.23-15.81,8.23.6,6.93,5.43,12.64,11.27,15.66l.8.38c.47.2.94.4,1.41.58a21.27,21.27,0,0,0,6.22,1.19c23.84,1.12,28.46-28.5,11.26-37.11a16.52,16.52,0,0,1,11.53,2.8,24.14,24.14,0,0,0-21-12.24c-.57,0-1.12,0-1.68.09a23.94,23.94,0,0,0-13.16,5.08c.73.62,1.55,1.44,3.29,3.15,3.25,3.21,11.58,6.51,11.59,6.9Z" transform="translate(-464.23 -462.63)"/><path class="f" d="M512.15,504.34c-.08,1.19-4.28,5.29-5.75,5.29-13.6,0-15.81,8.23-15.81,8.23.6,6.93,5.43,12.64,11.27,15.66l.8.38c.47.2.94.4,1.41.58a21.27,21.27,0,0,0,6.22,1.19c23.84,1.12,28.46-28.5,11.26-37.11a16.52,16.52,0,0,1,11.53,2.8,24.14,24.14,0,0,0-21-12.24c-.57,0-1.12,0-1.68.09a23.94,23.94,0,0,0-13.16,5.08c.73.62,1.55,1.44,3.29,3.15,3.25,3.21,11.58,6.51,11.59,6.9Z" transform="translate(-464.23 -462.63)"/><path class="g" d="M495,492.7l1,.65a22.17,22.17,0,0,1-.13-11.69,35.4,35.4,0,0,0-11.51,8.9c.22,0,7.16-.13,10.65,2.14Z" transform="translate(-464.23 -462.63)"/><path class="h" d="M464.67,514.67c3.69,21.8,23.46,38.46,45.9,39.1,20.77.59,34-11.47,39.52-23.23,3.54-7.6,6-20,1.49-32.28v-.09a.37.37,0,0,0,0,.08c1.7,11.08-3.94,21.81-12.75,29.07l0,.06c-17.17,14-33.59,8.43-36.92,6.17l-.69-.35c-10-4.78-14.14-13.9-13.26-21.72a12.29,12.29,0,0,1-11.33-7.13,18,18,0,0,1,17.59-.7,23.8,23.8,0,0,0,18,.7c0-.39-8.34-3.7-11.59-6.9-1.73-1.71-2.56-2.53-3.29-3.15a14.15,14.15,0,0,0-1.24-.94c-.28-.2-.6-.4-1-.65-3.49-2.27-10.43-2.14-10.66-2.14h0c-1.9-2.4-1.76-10.33-1.66-12a8.4,8.4,0,0,0-1.59.85,34.78,34.78,0,0,0-4.68,4A41.83,41.83,0,0,0,472,488.8a40.38,40.38,0,0,0-6.42,14.49c0,.09-1.74,7.52-.9,11.37Z" transform="translate(-464.23 -462.63)"/><path class="i" d="M528.94,495.79a26,26,0,0,1,4.44,5.8,9.23,9.23,0,0,1,.72.6c10.84,10,5.17,24.12,4.74,25.13,8.81-7.26,14.44-18,12.75-29.07-5.41-13.49-14.58-18.93-22.07-30.76-.38-.6-.76-1.19-1.13-1.83-.21-.36-.38-.69-.53-1a8.7,8.7,0,0,1-.71-1.88.13.13,0,0,0-.11-.13h-.11l0,0C525,463.56,514.07,480.93,528.94,495.79Z" transform="translate(-464.23 -462.63)"/><path class="j" d="M534.09,502.18a9.23,9.23,0,0,0-.72-.6l-.3-.22a16.53,16.53,0,0,0-11.53-2.8c17.2,8.6,12.58,38.23-11.26,37.11a21.27,21.27,0,0,1-6.22-1.19c-.47-.18-.94-.37-1.41-.58-.27-.12-.54-.25-.8-.38l0,0c3.33,2.27,19.75,7.81,36.92-6.17l0-.06C539.27,526.3,544.94,512.17,534.09,502.18Z" transform="translate(-464.23 -462.63)"/><path class="k" d="M490.59,517.86s2.21-8.23,15.81-8.23c1.47,0,5.67-4.1,5.75-5.29s-8.7,3.65-18-.7a18,18,0,0,0-17.59.7,12.29,12.29,0,0,0,11.33,7.13c-.89,7.82,3.25,16.94,13.26,21.72l.66.33c-5.84-3-10.66-8.73-11.27-15.66Z" transform="translate(-464.23 -462.63)"/><path class="l" d="M556.32,495.75c-2.08-5-6.29-10.4-9.6-12.11a49.64,49.64,0,0,1,4.84,14.52.47.47,0,0,0,0,.08c-5.41-13.48-14.58-18.92-22.07-30.76-.38-.6-.76-1.19-1.13-1.83-.21-.36-.38-.69-.53-1a8.7,8.7,0,0,1-.71-1.88.13.13,0,0,0-.11-.13h-.11l0,0,0,0c-12,7-16.09,20.06-16.47,26.57.56,0,1.11-.09,1.68-.09a24.14,24.14,0,0,1,21,12.24,16.53,16.53,0,0,0-11.53-2.8c17.2,8.6,12.58,38.23-11.26,37.11a21.27,21.27,0,0,1-6.22-1.19c-.47-.18-.94-.37-1.41-.58-.27-.12-.54-.25-.8-.38l0,0-.69-.35.66.33c-5.85-3-10.68-8.73-11.28-15.66,0,0,2.21-8.23,15.81-8.23,1.47,0,5.67-4.1,5.75-5.29,0-.39-8.34-3.7-11.59-6.9-1.73-1.71-2.56-2.53-3.29-3.15a14.15,14.15,0,0,0-1.24-.94,22.17,22.17,0,0,1-.13-11.69,35.4,35.4,0,0,0-11.51,8.9h0c-1.9-2.4-1.76-10.33-1.66-12a8.4,8.4,0,0,0-1.59.85,34.78,34.78,0,0,0-4.68,4,41.83,41.83,0,0,0-4.47,5.36,40.38,40.38,0,0,0-6.42,14.49l-.06.32c-.09.42-.5,2.56-.55,3h0a55.5,55.5,0,0,0-.71,6.68v.24a47.83,47.83,0,0,0,95,8.09c.08-.61.15-1.23.22-1.85a49.16,49.16,0,0,0-3.1-24Zm-4.74,2.46v0Z" transform="translate(-464.23 -462.63)"/></svg>